<svg version="1.1" id="Layer_1" xmlns="http://www.w3.org/2000/svg" xmlns:xlink="http://www.w3.org/1999/xlink" x="0px" y="0px"
	 width="100%" viewBox="0 0 1080 1080" enable-background="new 0 0 1080 1080" xml:space="preserve">
<path fill="#0F071E" opacity="1.000000" stroke="none" 
	d="
M556.000000,1081.000000 
	C541.645752,1081.000000 527.291565,1081.000000 512.268188,1080.628418 
	C480.354553,1078.016357 449.359467,1074.197510 418.800415,1066.989380 
	C363.122406,1053.856201 310.632812,1032.883789 261.745453,1003.210083 
	C204.650909,968.554810 155.207184,925.136169 114.295906,872.220703 
	C73.872894,819.936951 43.698048,762.307556 24.409872,699.034485 
	C13.210795,662.296997 5.778403,624.843750 2.689141,586.540283 
	C2.377259,582.673218 1.574798,578.845825 1.000001,575.000000 
	C1.000000,552.312439 1.000000,529.624878 1.366459,506.260834 
	C4.132843,486.102264 5.814453,466.499329 9.068026,447.160858 
	C18.642443,390.252777 37.408394,336.398071 64.776672,285.586853 
	C100.313622,219.609863 147.274094,163.193222 206.216064,116.790894 
	C259.252319,75.037849 317.953400,44.174229 382.491119,24.377228 
	C419.057404,13.160492 456.370728,5.906214 494.487366,2.728997 
	C498.346161,2.407349 502.163452,1.588250 506.000000,1.000002 
	C528.354248,1.000000 550.708435,1.000000 573.733215,1.377751 
	C600.782471,5.262251 627.450928,7.335618 653.474792,12.597418 
	C697.157898,21.429741 738.990479,36.306335 779.078979,56.057037 
	C832.921448,82.583984 880.976379,117.123009 923.359314,159.493134 
	C968.677979,204.798096 1004.650940,256.752594 1031.340820,314.994781 
	C1058.141846,373.479584 1074.603394,434.732544 1079.151733,499.048065 
	C1079.458618,503.387238 1080.369873,507.683685 1081.000000,512.000000 
	C1081.000000,521.354248 1081.000000,530.708435 1080.531372,540.531189 
	C905.402588,540.999695 730.742493,540.999695 556.000000,540.999695 
	C556.000000,721.499268 556.000000,901.249634 556.000000,1081.000000 
z"/>
<path fill="#FFFFFF" opacity="1.000000" stroke="none" 
	d="
M556.468628,1081.000000 
	C556.000000,901.249634 556.000000,721.499268 556.000000,540.999695 
	C730.742493,540.999695 905.402588,540.999695 1080.531372,540.999878 
	C1081.000000,720.926086 1081.000000,900.852112 1081.000000,1081.000000 
	C906.312500,1081.000000 731.624939,1081.000000 556.468628,1081.000000 
z"/>
<path fill="#FFFFFF" opacity="1.000000" stroke="none" 
	d="
M1.000001,575.468628 
	C1.574798,578.845825 2.377259,582.673218 2.689141,586.540283 
	C5.778403,624.843750 13.210795,662.296997 24.409872,699.034485 
	C43.698048,762.307556 73.872894,819.936951 114.295906,872.220703 
	C155.207184,925.136169 204.650909,968.554810 261.745453,1003.210083 
	C310.632812,1032.883789 363.122406,1053.856201 418.800415,1066.989380 
	C449.359467,1074.197510 480.354553,1078.016357 511.799500,1080.628418 
	C341.739929,1081.000000 171.479874,1081.000000 1.000000,1081.000000 
	C1.000000,912.645813 1.000000,744.291565 1.000001,575.468628 
z"/>
<path fill="#FFFFFF" opacity="1.000000" stroke="none" 
	d="
M1081.000000,511.531342 
	C1080.369873,507.683685 1079.458618,503.387238 1079.151733,499.048065 
	C1074.603394,434.732544 1058.141846,373.479584 1031.340820,314.994781 
	C1004.650940,256.752594 968.677979,204.798096 923.359314,159.493134 
	C880.976379,117.123009 832.921448,82.583984 779.078979,56.057037 
	C738.990479,36.306335 697.157898,21.429741 653.474792,12.597418 
	C627.450928,7.335618 600.782471,5.262251 574.201904,1.377751 
	C742.927368,1.000000 911.854736,1.000000 1081.000000,1.000000 
	C1081.000000,171.020828 1081.000000,341.041748 1081.000000,511.531342 
z"/>
<path fill="#FFFFFF" opacity="1.000000" stroke="none" 
	d="
M505.531342,1.000002 
	C502.163452,1.588250 498.346161,2.407349 494.487366,2.728997 
	C456.370728,5.906214 419.057404,13.160492 382.491119,24.377228 
	C317.953400,44.174229 259.252319,75.037849 206.216064,116.790894 
	C147.274094,163.193222 100.313622,219.609863 64.776672,285.586853 
	C37.408394,336.398071 18.642443,390.252777 9.068026,447.160858 
	C5.814453,466.499329 4.132843,486.102264 1.366459,505.792175 
	C1.000000,337.739563 1.000000,169.479126 1.000000,1.000000 
	C169.020828,1.000000 337.041748,1.000000 505.531342,1.000002 
z"/>
</svg>